<svg width="165.332992553711" height="165.332992553711" xmlns="http://www.w3.org/2000/svg">
 <defs>
  <linearGradient y2="-0.007476" y1="1.36959" x2="0.500006" x1="0.500006" id="def1">
   <stop stop-opacity="0.227451" stop-color="#FFFFFF" offset="0"/>
   <stop stop-opacity="0.188235" stop-color="#FFFFFF" offset="0.503705"/>
   <stop stop-opacity="0.152941" stop-color="#FFFFFF" offset="1"/>
  </linearGradient>
 </defs>
 <g>
  <title>background</title>
  <rect fill="none" id="canvas_background" height="402" width="582" y="-1" x="-1"/>
 </g>
 <g>
  <title>Layer 1</title>
  <path id="svg_2" fill="#ff5656" d="m0,82.6667c0,45.6563 37.0107,82.6663 82.668,82.6663l0,0c45.657,0 82.665,-37.01 82.665,-82.6663l0,0c0,-45.656 -37.008,-82.6667 -82.665,-82.6667l0,0c-45.6573,0 -82.668,37.0107 -82.668,82.6667z"/>
  <path id="svg_3" fill="url(#def1)" d="m133.283,34.5333c0,16.0107 -23.072,28.992 -51.5323,28.992c-28.4587,0 -51.528,-12.9813 -51.528,-28.992c0,-16.0106 23.0693,-28.99198 51.528,-28.99198c28.4603,0 51.5323,12.98138 51.5323,28.99198z"/>
  <path id="svg_4" fill="#FFFFFF" d="m81.8959,13.3776c16.908,0 32.7211,2.9813 46.2361,8.1573c-12.056,-9.7346 -28.3188,-15.7173 -46.2361,-15.7173c-17.9174,0 -34.184,5.9827 -46.2374,15.7173c13.512,-5.176 29.3254,-8.1573 46.2374,-8.1573z"/>
  <path id="svg_5" fill="#FFFFFF" d="m121.633,90.3412l-38.9882,38.9918l-38.9947,-38.9918l0,-25.7187l29.6587,29.6574l0,-58.28l18.8787,0l0,58.0746l29.4955,-29.5013l-0.05,25.768z"/>
 </g>
</svg>